TiTLE: Robot.&.Frank.2012.DVDRip.AC3.5.1.XviD-DEYA
 
http://www.imdb.com/title/tt1990314/

General
Complete name : C:UsersBakerDesktopRobot.&.Frank.2012.DVDRip.AC3.5.1.XviD-DEYA
Format : AVI
Format/Info : Audio Video Interleave
File size : 1.48 GiB
Duration : 1h 25mn
Overall bit rate : 2 484 Kbps
Writing library : VirtualDub-MPEG2 build 24586/release

Video
ID : 0
Format : MPEG-4 Visual
Format profile : Advanced Simple@L5
Format settings, BVOP : 2
Format settings, QPel : No
Format settings, GMC : No warppoints
Format settings, Matrix : Default (H.263)
Muxing mode : Packed bitstream
Codec ID : XVID
Codec ID/Hint : XviD
Duration : 1h 25mn
Bit rate : 2 026 Kbps
Width : 720 pixels
Height : 304 pixels
Display aspect ratio : 2.35:1
Frame rate : 25.000 fps
Color space : YUV
Chroma subsampling : 4:2:0
Bit depth : 8 bits
Scan type : Progressive
Compression mode : Lossy
Bits/(Pixel*Frame) : 0.370
Stream size : 1.21 GiB (82%)
Writing library : XviD 64

Audio
ID : 1
Format : AC-3
Format/Info : Audio Coding 3
Mode extension : CM (complete main)
Format settings, Endianness : Big
Codec ID : 2000
Duration : 1h 25mn
Bit rate mode : Constant
Bit rate : 448 Kbps
Channel(s) : 6 channels
Channel positions : Front: L C R, Side: L R, LFE
Sampling rate : 48.0 KHz
Bit depth : 16 bits
Compression mode : Lossy
Stream size : 273 MiB (18%)
Alignment : Aligned on interleaves
Interleave, duration : 40 ms (1.00 video frame)
Interleave, preload duration : 512 ms

SOURCE: DVD9

NOTES: Tweaked Enjoy! ;)

SCREENiES:
 
http://img855.imageshack.us/img855/5530/88099250.png
 
http://img849.imageshack.us/img849/6626/40478100.png
 
http://img607.imageshack.us/img607/330/61727475.png
 
http://img585.imageshack.us/img585/8208/78236143.png
 
http://img43.imageshack.us/img43/8641/79113993.png
 
http://img33.imageshack.us/img33/2374/50697374.png

GreeTz: OURSELVES & ET ;)